<svg xmlns="http://www.w3.org/2000/svg" xml:space="preserve" viewBox="0 0 197.602 197.602"><path d="m92.939 141.354-54.783 54.783c-.977.976-2.256 1.464-3.536 1.464s-2.559-.488-3.536-1.464l-9.61-9.61 58.319-58.319 13.146 13.146zm16.933-83.66 27.634-27.634c.017-.017.039-.029.056-.046.195-.189.407-.362.632-.518.039-.027.076-.057.116-.083.192-.126.392-.242.602-.342l49.679-23.387c.147-.069.299-.116.449-.17.093-.033.184-.078.279-.105.18-.053.363-.083.546-.115.068-.012.135-.034.204-.043a4.994 4.994 0 0 1 4.053 1.306c.043.04.092.072.134.114l.001.001c.001.001 0 0 0 0 .091.091.164.192.246.288.087.102.183.198.261.305.048.066.083.138.127.206.097.147.196.293.276.448.004.007.005.015.009.022a5 5 0 0 1 .07 4.398l-10.107 21.47-.002.004-13.278 28.205a4.917 4.917 0 0 1-.326.581c-.026.041-.057.078-.084.118-.16.233-.337.451-.532.652-.017.017-.028.038-.045.056l-27.634 27.634-13.146-13.146 24.099-24.098-7.071-7.071-24.099 24.099-13.149-13.149zm39.735-22.604 16.233 16.233 8.753-18.593-6.392-6.393-18.594 8.753zm-90.032 72.901L4.792 162.774a5 5 0 0 0 0 7.071l9.61 9.61 58.319-58.319-13.146-13.145zM19.314 14.117 3.51 29.921a5.523 5.523 0 0 0-1.628 3.931c0 1.485.578 2.881 1.628 3.931l153.042 153.042a5.523 5.523 0 0 0 3.931 1.628 5.527 5.527 0 0 0 3.931-1.628l15.804-15.804L19.314 14.117zM192.705 154.67 39.664 1.629A5.523 5.523 0 0 0 35.733 0a5.527 5.527 0 0 0-3.931 1.628l-5.417 5.417 160.904 160.904 5.417-5.417a5.566 5.566 0 0 0-.001-7.862z" style="fill:#214478"/></svg>